# xmcd CD database file
#
# Track frame offsets:
#	182
#	19035
#	32982
#	47012
#	64182
#	82802
#	94720
#	114167
#	124582
#	137082
#	146830
#	159882
#	174025
#	194082
#	208560
#	220107
#	230470
#	245572
#	256857
#	262120
#	272607
#	281542
#
# Disc length: 3918 seconds
#
# Revision: 0
# Processed by: cddbd v1.5.2PL0 Copyright (c) Steve Scherf et al.
# Submitted via: CDex 1.51
#
DISCID=340f4c16
DTITLE=Eva Olmerova - Priznani
DYEAR=1993
DGENRE=Jazz
TTITLE0=01 Georgia
TTITLE1=02 Aleluja a Jazz
TTITLE2=03 Tvou Lasku
TTITLE3=04 K Vam Touzim Jit
TTITLE4=05 Staci Malo, Nekdy Pul
TTITLE5=06 Kde To Znam
TTITLE6=07 Tezky Vzdech
TTITLE7=08 Kdyz Zacnou Hrat
TTITLE8=09 Mas Mit Zpatecni
TTITLE9=10 Den Zacina Krasne
TTITLE10=11 Prosim Volejte 2245
TTITLE11=12 Nedelni Chvilka Volna
TTITLE12=13 Noc Touhu Koleba
TTITLE13=14 Den Je Nas
TTITLE14=15 Cekam Na Ten Svuj Den
TTITLE15=16 Co Te Nema
TTITLE16=17 Par Dni v Tydnu
TTITLE17=18 Ja Mam Nastesti Par Pratel
TTITLE18=19 Poznani
TTITLE19=20 Vitr Rvac
TTITLE20=21 Priznani
TTITLE21=22 Prijde Cas, Kdy Skonci My Trapeni
EXTD=YEAR: 1993
EXTT0=
EXTT1=
EXTT2=
EXTT3=
EXTT4=
EXTT5=
EXTT6=
EXTT7=
EXTT8=
EXTT9=
EXTT10=
EXTT11=
EXTT12=
EXTT13=
EXTT14=
EXTT15=
EXTT16=
EXTT17=
EXTT18=
EXTT19=
EXTT20=
EXTT21=
PLAYORDER=
